<?xml version="1.0" encoding="UTF-8" standalone="yes"?>
<svg version="1.1" id="Layer_1" xmlns="http://www.w3.org/2000/svg" xmlns:xlink="http://www.w3.org/1999/xlink" x="0px" y="0px" viewBox="0 0 384.8 111.7" style="enable-background:new 0 0 384.8 111.7;" xml:space="preserve">
  <style type="text/css">&#xD;
	.st0{fill:#A50505;}&#xD;
</style>
  <g>
    <g>
      <path d="M353.2,34.78c-0.57,0-1.1-0.1-1.59-0.3c-0.49-0.2-0.91-0.48-1.27-0.84c-0.35-0.36-0.63-0.78-0.83-1.27&#xD;&#xA;&#x9;&#x9;&#x9;c-0.2-0.48-0.3-1.02-0.3-1.6c0-0.57,0.1-1.1,0.3-1.59c0.2-0.49,0.48-0.91,0.83-1.27c0.35-0.35,0.78-0.63,1.27-0.83&#xD;&#xA;&#x9;&#x9;&#x9;c0.49-0.2,1.02-0.3,1.59-0.3c0.58,0,1.11,0.1,1.6,0.3c0.48,0.2,0.91,0.48,1.27,0.83c0.36,0.35,0.64,0.78,0.84,1.27&#xD;&#xA;&#x9;&#x9;&#x9;c0.2,0.49,0.3,1.02,0.3,1.59c0,0.58-0.1,1.12-0.3,1.6c-0.2,0.48-0.48,0.91-0.84,1.27c-0.36,0.36-0.78,0.64-1.27,0.84&#xD;&#xA;&#x9;&#x9;&#x9;C354.32,34.68,353.78,34.78,353.2,34.78z M353.2,34.33c0.5,0,0.97-0.09,1.4-0.27c0.44-0.18,0.81-0.43,1.12-0.75&#xD;&#xA;&#x9;&#x9;&#x9;c0.31-0.32,0.56-0.69,0.74-1.12c0.18-0.43,0.27-0.9,0.27-1.41c0-0.5-0.09-0.97-0.27-1.4c-0.18-0.44-0.43-0.81-0.74-1.12&#xD;&#xA;&#x9;&#x9;&#x9;c-0.31-0.31-0.69-0.56-1.12-0.74c-0.44-0.18-0.9-0.27-1.4-0.27s-0.96,0.09-1.39,0.27c-0.43,0.18-0.8,0.43-1.11,0.74&#xD;&#xA;&#x9;&#x9;&#x9;c-0.31,0.31-0.56,0.69-0.74,1.12c-0.18,0.44-0.27,0.9-0.27,1.4c0,0.51,0.09,0.98,0.27,1.41c0.18,0.43,0.43,0.8,0.74,1.12&#xD;&#xA;&#x9;&#x9;&#x9;c0.31,0.32,0.68,0.57,1.11,0.75C352.24,34.24,352.7,34.33,353.2,34.33z M352,33c-0.13,0-0.19-0.06-0.19-0.19v-4.11&#xD;&#xA;&#x9;&#x9;&#x9;c0-0.12,0.06-0.19,0.19-0.19h1.56c0.43,0,0.76,0.12,0.99,0.35c0.23,0.24,0.34,0.53,0.34,0.89c0,0.31-0.08,0.57-0.24,0.8&#xD;&#xA;&#x9;&#x9;&#x9;c-0.16,0.23-0.38,0.38-0.67,0.45l0.89,1.79c0.06,0.14,0.02,0.21-0.1,0.21h-0.19c-0.08,0-0.15-0.05-0.21-0.15l-0.91-1.83h-1.12&#xD;&#xA;&#x9;&#x9;&#x9;c-0.04,0-0.06,0.01-0.06,0.04v1.75c0,0.12-0.06,0.19-0.19,0.19H352z M353.55,30.58c0.31,0,0.53-0.08,0.67-0.23&#xD;&#xA;&#x9;&#x9;&#x9;c0.14-0.15,0.21-0.35,0.21-0.6c0-0.24-0.07-0.43-0.21-0.58c-0.14-0.15-0.36-0.23-0.67-0.23h-1.23c-0.04,0-0.06,0.01-0.06,0.04&#xD;&#xA;&#x9;&#x9;&#x9;v1.56c0,0.03,0.02,0.04,0.06,0.04H353.55z"/>
    </g>
    <g>
      <path d="M165.55,39.7c-3.75-3.28-9.18-4.92-16.28-4.92H47.92c-6.66,0-11.71,1.63-15.16,4.88c-3.44,3.26-5.17,8.02-5.17,14.3&#xD;&#xA;&#x9;&#x9;&#x9;c0,0.1,0.01,11.98,0.01,12.09c0.06,6.12,1.78,10.78,5.16,13.98c3.45,3.26,8.5,4.88,15.16,4.88h97.61V69.4H47.78&#xD;&#xA;&#x9;&#x9;&#x9;c-3.8,0-5.77-1.23-5.87-3.67c-0.01-0.07-0.01-11.91-0.01-11.99c0-2.3,1.92-3.45,5.75-3.45h102.37c4.57,0,6.85,1.18,6.85,3.54&#xD;&#xA;&#x9;&#x9;&#x9;c0,0.06,0,2.54-0.01,5.42h14.32v-5.29C171.19,47.74,169.31,43,165.55,39.7z"/>
      <polygon class="st0" points="171.19,63.32 149.59,63.32 149.59,84.91 160.99,84.91 160.99,74.72 171.19,74.72 &#x9;&#x9;"/>
    </g>
    <path d="M216.97,70.12c8.53-2.53,12.8-8.16,12.8-16.88c0-6.06-2.08-10.64-6.25-13.77c-4.17-3.12-10.29-4.69-18.35-4.69h-28.04&#xD;&#xA;&#x9;&#x9;v12.73h28.04c5.81,0,8.72,1.91,8.72,5.73c0,3.86-2.91,5.79-8.72,5.79H193v7.34l5.51,5.26l13.88,13.23h20.17L216.97,70.12z"/>
    <path d="M288.67,62.93c-1.88-2.12-4.28-3.43-7.19-3.9v-1.79c2.34-0.81,4.15-2.09,5.44-3.86c1.29-1.76,1.93-3.87,1.93-6.3&#xD;&#xA;&#x9;&#x9;c0-4.05-1.76-7.11-5.29-9.19c-3.54-2.08-8.68-3.12-15.45-3.12H238.5v11.73h27.03c4.77,0,7.15,1.39,7.15,4.15&#xD;&#xA;&#x9;&#x9;c0,2.57-2.15,3.86-6.44,3.86H238.5V64.9h28.75c5.29,0,7.94,1.32,7.94,3.93c0,2.96-2.86,4.44-8.58,4.44H238.5v11.58h28.97&#xD;&#xA;&#x9;&#x9;c8.68,0,14.83-1.07,18.46-3.22c3.72-2.23,5.58-5.87,5.58-10.87C291.5,67.67,290.56,65.05,288.67,62.93z"/>
    <path d="M323.5,84.85c-16.65,0-25.33-5.71-26.06-17.14h14.42c0.18,1.77,1.22,3.05,3.13,3.84c1.91,0.79,4.92,1.19,9.05,1.19&#xD;&#xA;&#x9;&#x9;c6.62,0,9.93-1.38,9.93-4.15c0-0.73-0.43-1.37-1.29-1.94c-0.86-0.57-2.11-0.92-3.74-1.05l-14.42-1.29&#xD;&#xA;&#x9;&#x9;c-5.4-0.45-9.34-1.82-11.84-4.12c-2.5-2.29-3.74-5.52-3.74-9.69c0-5.08,2.1-8.97,6.29-11.67c4.19-2.7,10.31-4.05,18.33-4.05&#xD;&#xA;&#x9;&#x9;c15.19,0,23.27,5.24,24.22,15.71H333.5c-0.36-1.36-1.32-2.31-2.86-2.86c-1.54-0.54-4.04-0.82-7.48-0.82&#xD;&#xA;&#x9;&#x9;c-6.03,0-9.05,1.09-9.05,3.27c0,1.45,1.31,2.29,3.95,2.52l14.49,1.43c5.49,0.54,9.64,2.04,12.45,4.49&#xD;&#xA;&#x9;&#x9;c2.81,2.45,4.22,5.69,4.22,9.73c0,5.35-2.22,9.46-6.67,12.31C338.1,83.42,331.75,84.85,323.5,84.85z"/>
  </g>
</svg>